<?xml version="1.0" encoding="utf-8"?>

<svg version="1.1" id="Layer_1" xmlns="http://www.w3.org/2000/svg" xmlns:xlink="http://www.w3.org/1999/xlink" x="0px" y="0px" viewBox="0 0 60 60" style="enable-background:new 0 0 60 60;" xml:space="preserve">

<g id="a">
</g>
<g id="b">
&#x9;<path class="st0" d="M52,30c0,0.2,0,0.5,0,0.7v0c0,0,0,0,0,0C51.6,42.5,41.9,52,30,52S8,42.1,8,30c0-4.6,1.4-9,4.1-12.7H9.2&#xA;&#x9;&#x9;c-0.6,0-1-0.5-1-1s0.4-1,1-1h4.9c0.1,0,0.1,0,0.2,0c0.1,0,0.1,0,0.1,0c0.1,0,0.2,0.1,0.3,0.2h0c0.1,0.1,0.2,0.2,0.2,0.3&#xA;&#x9;&#x9;c0,0,0,0.1,0.1,0.1c0,0.1,0.1,0.1,0.1,0.2l0.8,5.2c0.1,0.5-0.3,1-0.8,1.1c-0.1,0-0.1,0-0.1,0c-0.5,0-0.9-0.4-1-0.9l-0.4-2.9&#xA;&#x9;&#x9;C11.2,22.1,10,26,10,30c0,10.4,8,19,18.2,19.9v-4.5c0-0.5,0.5-1,1-1s1,0.5,1,1V50c10.4-0.1,18.8-8.1,19.7-18.3h-4.1&#xA;&#x9;&#x9;c-0.5,0-1-0.5-1-1s0.5-1,1-1H50C49.8,18.9,41,10.1,30.2,10v4.5c0,0.6-0.5,1-1,1s-1-0.4-1-1v-4.5c-3,0.3-5.9,1.2-8.4,2.7&#xA;&#x9;&#x9;c-0.5,0.3-1.1,0.1-1.4-0.4c-0.3-0.5-0.1-1.1,0.4-1.4C22.1,9,26,8,30,8C42.1,8,52,17.8,52,30L52,30z M29.2,21c-0.5,0-1,0.5-1,1v8&#xA;&#x9;&#x9;c0,0.3,0.1,0.5,0.3,0.7l11.1,11c0.2,0.2,0.5,0.3,0.7,0.3s0.5-0.1,0.7-0.3c0.4-0.4,0.4-1,0-1.4L30.2,29.6V22&#xA;&#x9;&#x9;C30.2,21.5,29.8,21,29.2,21L29.2,21z"></path>
</g>
</svg>