<?xml version="1.0" encoding="UTF-8"?><svg id="_Слой_2" xmlns="http://www.w3.org/2000/svg" viewBox="0 0 40 40"><defs></defs><rect class="cls-2" width="40" height="40" rx="1.66" ry="1.66"></rect><path class="cls-1" d="M20,11.42c1.35,0,2.59-.77,3.18-1.99.72.21,1.4.5,2.05.85-.44,1.28-.12,2.69.84,3.65.96.96,2.37,1.28,3.65.84.35.65.63,1.33.85,2.05-1.21.59-1.99,1.82-1.99,3.18s.77,2.59,1.99,3.18c-.21.71-.5,1.4-.85,2.05-1.28-.44-2.69-.11-3.65.84-.96.96-1.28,2.37-.84,3.65-.65.35-1.33.63-2.05.85-.59-1.21-1.82-1.99-3.18-1.99s-2.59.77-3.18,1.99c-.72-.21-1.4-.5-2.05-.85.44-1.28.12-2.69-.84-3.65-.96-.96-2.37-1.28-3.65-.84-.35-.65-.63-1.33-.85-2.05,1.21-.59,1.99-1.82,1.99-3.18s-.77-2.59-1.99-3.18c.21-.71.5-1.4.85-2.05,1.28.44,2.69.11,3.65-.84.96-.96,1.28-2.37.84-3.65.65-.35,1.33-.63,2.05-.85.59,1.21,1.82,1.99,3.18,1.99ZM17.5,8l.4.86c.38.81,1.2,1.33,2.09,1.33s1.71-.52,2.09-1.33l.4-.86c1.53.32,2.96.92,4.22,1.75l-.33.9c-.31.84-.1,1.79.54,2.42.63.63,1.58.84,2.42.54l.9-.33c.83,1.26,1.43,2.69,1.75,4.22l-.86.4c-.81.38-1.33,1.2-1.33,2.09s.52,1.71,1.33,2.09l.86.4c-.32,1.53-.92,2.96-1.75,4.22l-.9-.33c-.84-.31-1.79-.1-2.42.54-.63.63-.84,1.58-.54,2.42l.33.9c-1.26.83-2.69,1.43-4.22,1.75l-.4-.86c-.38-.81-1.2-1.33-2.09-1.33s-1.71.52-2.09,1.33l-.4.86c-1.53-.32-2.96-.92-4.22-1.75l.33-.89c.31-.84.1-1.79-.54-2.42-.63-.63-1.58-.84-2.42-.54l-.9.33c-.83-1.26-1.43-2.69-1.75-4.22l.86-.4c.81-.38,1.33-1.2,1.33-2.09s-.52-1.71-1.33-2.09l-.86-.4c.32-1.53.92-2.96,1.75-4.22l.9.33c.84.31,1.79.1,2.42-.54.63-.63.84-1.58.54-2.42l-.33-.9c1.26-.83,2.69-1.43,4.22-1.75ZM19.4,23.63v-5.54c0-.33.27-.6.6-.6s.6.27.6.6v5.55c.59-.12,1.11-.42,1.52-.83.54-.55.88-1.32.88-2.17,0-.91-.34-1.92-.92-3.05-.52-1-1.23-2.08-2.08-3.27-.85,1.18-1.56,2.27-2.08,3.27-.59,1.13-.92,2.14-.92,3.05,0,.85.34,1.62.88,2.17.41.41.93.71,1.52.83ZM20,27.08c.33,0,.6-.27.6-.6v-1.64c.92-.13,1.75-.57,2.37-1.21.76-.77,1.23-1.84,1.23-3.01s-.38-2.3-1.06-3.6c-.65-1.24-1.56-2.59-2.65-4.08-.02-.03-.05-.06-.08-.09-.02-.02-.04-.04-.06-.05-.27-.2-.64-.14-.84.13-1.1,1.49-2.01,2.84-2.66,4.09-.67,1.3-1.06,2.49-1.06,3.6,0,1.17.47,2.24,1.23,3.01.63.64,1.45,1.08,2.37,1.21v1.64c0,.33.27.6.6.6Z"></path></svg>